<svg width="602" height="429" viewBox="0 0 602 429" fill="none" xmlns="http://www.w3.org/2000/svg">
<g clip-path="url(#clip0_673_2)">
<path d="M329.918 130.782C331.898 135.112 335.658 138.232 340.788 139.812C355.258 144.262 381.838 136.652 410.938 119.872C410.788 122.312 410.008 125.772 408.068 129.952C401.338 144.392 384.218 160.082 356.348 160.802C346.658 161.062 339.258 158.502 332.078 156.042C322.978 152.922 314.398 149.972 303.838 154.022C297.498 156.452 293.568 161.352 293.048 167.442C292.288 176.362 298.798 185.822 310.468 192.762C311.108 193.142 311.808 193.322 312.508 193.322C313.868 193.322 315.198 192.622 315.948 191.362C317.078 189.462 316.448 187.012 314.558 185.882C303.988 179.592 300.658 172.382 301.028 168.122C301.348 164.322 304.298 162.412 306.708 161.492C314.548 158.482 321.138 160.742 329.488 163.612C336.968 166.182 345.458 169.082 356.558 168.802C388.078 167.992 407.588 149.952 415.328 133.332C419.648 124.062 420.158 115.592 416.658 111.212C415.408 109.642 413.178 109.242 411.458 110.282C383.328 127.292 355.868 136.092 343.148 132.172C340.178 131.262 338.228 129.712 337.198 127.462C334.528 121.632 334.368 106.962 339.228 90.2025C342.398 79.2825 350.238 59.0825 367.108 46.4325C381.218 35.8525 394.428 33.2625 403.368 33.0525C370.158 53.4525 368.868 68.4925 368.848 70.2925C368.828 71.4325 369.298 72.5325 370.138 73.3025C370.978 74.0725 372.098 74.4525 373.248 74.3425C389.388 72.7325 399.078 73.1825 403.428 75.8725C371.298 88.2425 355.738 98.0825 350.188 109.392C344.958 120.032 351.018 127.712 354.958 130.292C356.808 131.502 359.308 130.992 360.518 129.142C361.728 127.292 361.228 124.832 359.378 123.622C358.468 123.002 354.118 119.542 357.368 112.922C362.078 103.332 378.668 93.6425 411.158 81.5025C413.138 80.7625 414.198 78.6125 413.588 76.5925C410.418 66.1025 397.948 64.3725 378.688 65.8325C382.048 59.7125 391.508 48.1325 417.968 33.9225C419.398 33.1525 420.218 31.6125 420.058 30.0025C419.898 28.3925 418.778 27.0425 417.228 26.5725C416.148 26.2525 390.558 18.8925 362.328 40.0525C331.028 63.4525 322.348 114.282 329.918 130.782Z" fill="#8488B3"/>
<path d="M99.999 246.92C138.209 225.08 178.309 222.33 247.959 236.79C291.219 245.77 324.719 251.02 354.319 251.02C396.739 251.02 431.149 240.24 474.749 214.18C476.649 213.05 477.259 210.59 476.129 208.69C474.999 206.79 472.539 206.18 470.639 207.31C411.549 242.62 369.659 248.94 299.189 238.13C308.279 233.79 314.279 227.25 315.899 219.48C317.719 210.77 313.659 201.96 305.039 195.91C293.679 187.93 286.389 174.94 285.039 160.28C283.629 144.91 288.969 129.8 299.709 118.83C313.559 104.68 323.139 88.3697 327.419 71.6697C331.399 56.1497 330.569 40.7597 325.089 28.3197C317.019 9.98972 300.219 -0.120278 279.059 0.589722C251.679 1.50972 240.329 13.9597 235.629 24.2497C229.139 38.4497 232.379 56.2097 239.099 64.5097C245.209 72.0597 247.869 78.2997 246.799 82.5597C246.029 85.6497 243.109 88.2797 238.129 90.3897C231.159 93.3397 227.249 96.6697 225.839 100.88C223.989 106.4 227.019 111.66 229.949 116.75C231.199 118.92 232.499 121.17 233.489 123.51C234.129 125 234.789 126.42 235.429 127.79C239.849 137.22 243.049 144.04 229.879 159.91C228.469 161.61 228.699 164.13 230.399 165.54C232.099 166.95 234.619 166.72 236.029 165.02C252.439 145.25 247.469 134.65 242.669 124.4C242.059 123.09 241.419 121.73 240.839 120.37C239.659 117.6 238.179 115.03 236.869 112.76C234.729 109.05 232.709 105.54 233.409 103.43C233.829 102.18 235.529 100.17 241.239 97.7597C248.659 94.6197 253.139 90.1597 254.559 84.4997C256.309 77.5097 253.289 69.3197 245.319 59.4697C240.769 53.8397 237.399 39.6197 242.909 27.5597C248.299 15.7497 260.899 9.18972 279.339 8.56972C297.069 7.99972 311.089 16.3397 317.779 31.5297C326.139 50.5097 322.729 81.7497 296.999 110.03C295.709 109.43 294.139 109.52 292.919 110.43C266.159 130.39 254.129 148.03 256.119 164.37C257.949 179.36 271.349 191.91 297.089 202.74C297.599 202.95 298.119 203.05 298.639 203.05C299.319 203.05 299.989 202.86 300.579 202.54C306.489 206.75 309.219 212.32 308.069 217.84C306.439 225.63 297.709 231.86 284.709 234.51C284.009 234.65 283.399 234.99 282.899 235.42C272.449 233.57 261.389 231.4 249.569 228.95C177.759 214.05 136.139 217.03 96.019 239.97C94.099 241.07 93.439 243.51 94.529 245.43C95.619 247.35 98.079 248.02 99.999 246.92ZM264.069 163.4C262.859 153.45 269.149 141.99 282.799 129.2C278.109 138.95 276.069 149.92 277.089 160.99C278.049 171.38 281.609 181.06 287.259 189.15C272.989 181.28 265.199 172.64 264.069 163.4Z" fill="#8488B3"/>
<path d="M523.051 233.751C522.121 231.751 519.751 230.871 517.741 231.801C433.701 270.661 374.411 268.821 273.301 250.011C194.191 235.291 106.661 241.821 65.1713 265.541C63.2513 266.641 62.5913 269.081 63.6813 271.001C64.4213 272.291 65.7713 273.021 67.1613 273.021C67.8313 273.021 68.5113 272.851 69.1413 272.491C108.511 249.981 195.651 243.701 271.841 257.881C330.701 268.831 369.261 272.411 404.931 270.231C443.761 267.861 479.591 258.251 521.101 239.061C523.101 238.141 523.981 235.761 523.051 233.751Z" fill="#8488B3"/>
<path d="M599.039 316.18C597.499 313.39 595.329 311.29 592.549 309.8C589.769 308.31 586.929 307.57 584.089 307.57C581.249 307.57 578.349 308.31 575.629 309.8C572.849 311.29 570.689 313.45 569.139 316.18C567.599 318.97 566.789 321.88 566.789 324.85C566.789 327.82 567.529 330.67 569.079 333.46C570.619 336.19 572.719 338.35 575.499 339.9C578.219 341.45 581.119 342.19 584.089 342.19C587.059 342.19 589.959 341.45 592.679 339.9C595.399 338.35 597.559 336.25 599.039 333.46C600.579 330.73 601.319 327.82 601.319 324.85C601.319 321.88 600.579 318.97 599.039 316.18ZM596.569 332.03C595.269 334.32 593.539 336.12 591.259 337.36C588.969 338.66 586.559 339.28 584.089 339.28C581.619 339.28 579.209 338.66 576.919 337.36C574.639 336.06 572.839 334.32 571.549 332.03C570.249 329.74 569.639 327.32 569.639 324.85C569.639 322.37 570.259 319.96 571.619 317.6C572.919 315.31 574.709 313.51 576.989 312.27C579.269 311.03 581.619 310.41 584.089 310.41C586.559 310.41 588.849 311.03 591.189 312.27C593.469 313.51 595.269 315.31 596.559 317.6C597.859 319.89 598.479 322.31 598.479 324.85C598.479 327.39 597.859 329.74 596.569 332.03Z" fill="#283582"/>
<path d="M587.12 327.142C586.75 326.772 586.19 326.462 585.51 326.152C587.12 326.032 588.411 325.472 589.341 324.482C590.331 323.492 590.82 322.312 590.82 320.952C590.82 319.962 590.511 319.092 589.951 318.222C589.401 317.352 588.59 316.732 587.6 316.422C586.61 316.052 585.071 315.922 582.841 315.922H576.48V334.562H579.51V326.632H581.3C582.35 326.632 583.151 326.822 583.711 327.252C584.511 327.812 585.56 329.292 586.86 331.592L588.531 334.502H592.17L589.891 330.852C588.781 329.122 587.91 327.882 587.17 327.132H587.12V327.142ZM583.16 323.982H579.521V318.342H582.92C584.4 318.342 585.391 318.462 585.951 318.652C586.511 318.842 586.94 319.212 587.25 319.642C587.56 320.072 587.68 320.572 587.68 321.132C587.68 322.002 587.37 322.682 586.75 323.172C586.13 323.672 584.95 323.982 583.16 323.982Z" fill="#283582"/>
<path d="M271.799 376.941C270.629 376.941 268.769 396.141 247.399 396.141C235.969 396.141 218.919 385.981 218.919 360.831C218.919 344.351 227.069 324.781 246.219 324.781C262.899 324.781 255.669 337.171 261.039 337.171C269.319 337.171 274.569 332.831 274.569 325.221C274.569 310.971 256.969 306.141 245.539 306.141C213.669 306.141 197.609 337.361 197.609 365.911C197.609 392.481 211.509 419.611 241.339 419.611C259.749 419.611 274.689 408.271 274.689 388.831C274.689 387.531 273.639 377.001 271.789 377.001V376.941H271.799Z" fill="#283582"/>
<path d="M185.571 389.583C182.301 389.583 174.951 400.793 162.841 400.793C155.611 400.793 147.771 396.453 147.771 378.313C147.771 341.953 163.031 313.713 163.031 310.803C163.031 308.453 161.491 308.203 160.561 308.203H139.681C135.851 308.203 128.691 369.023 128.691 386.683C129.371 413.383 127.271 418.023 134.191 417.773H187.621C189.231 417.773 193.241 418.453 193.241 415.793C193.241 415.113 188.111 389.713 185.641 389.713L185.571 389.583Z" fill="#283582"/>
<path d="M453.45 332.718C453.45 321.508 447.28 308.128 422.88 308.128H388.1C385.88 308.128 379.02 305.778 379.02 370.808C379.02 420.178 382.97 417.698 386.25 417.698H401.45C402.75 417.698 406.02 418.378 406.02 416.148C406.02 415.218 401.14 397.198 401.14 387.158C401.14 379.788 410.71 374.398 414.67 374.398C422.27 374.398 432.77 401.098 432.77 416.018C432.77 418.128 436.85 417.748 439.19 417.748H454.01C456.79 417.748 457.28 417.498 457.28 416.018C457.28 384.928 433.62 367.708 433.62 364.048C433.62 360.398 453.32 353.888 453.32 332.828L453.45 332.718ZM404.35 358.788C400.4 358.788 400.28 353.528 400.28 350.738C400.16 327.948 405.41 323.608 417.33 323.608C424.43 323.608 432.15 326.648 432.15 334.948C432.15 347.028 408.8 358.798 404.29 358.798H404.35V358.788Z" fill="#283582"/>
<path d="M325.721 306.141C301.201 306.141 282.301 343.921 282.301 377.741C282.301 400.531 292.681 419.611 319.171 419.611H332.331C358.831 419.611 369.201 400.531 369.201 377.741C369.201 343.921 350.301 306.141 325.781 306.141H325.721ZM325.721 396.201C311.821 396.201 303.551 390.251 303.551 374.891C303.551 345.781 316.951 327.511 325.721 327.511C334.491 327.511 347.891 345.781 347.891 374.891C347.891 390.321 339.621 396.201 325.721 396.201Z" fill="#283582"/>
<path d="M85.8203 295.737C46.1703 295.737 21.7103 319.277 13.0603 365.787C12.0703 367.207 10.5903 368.517 8.61031 369.567C4.60031 371.857 3.42031 373.037 2.80031 373.907L0.820312 376.637L3.66031 378.367C6.87031 380.347 9.40031 381.837 11.3203 382.947C10.8903 393.667 13.1703 403.507 18.1803 412.247C19.3503 414.357 20.6503 416.207 22.0703 417.887H13.9803C10.9503 417.887 8.48031 420.367 8.48031 423.397C8.48031 426.427 10.9503 428.907 13.9803 428.907H42.3303C42.7003 428.907 43.0703 428.907 43.4403 428.787C44.0603 428.787 44.6103 428.787 45.2303 428.787C53.3203 428.787 58.7603 426.247 61.2303 421.227L62.9603 417.817L59.2503 416.827C52.8303 415.097 47.2103 411.067 42.5103 404.937C38.2503 399.427 36.0203 393.667 35.7803 387.777H42.2703C58.0203 387.777 71.1203 385.237 81.3103 380.157C81.3103 387.527 81.2503 394.027 81.2503 399.607C81.2503 405.177 79.8903 409.147 77.1703 412.427L73.1603 417.197L79.3403 417.627C82.8603 417.877 84.0303 417.937 84.2203 417.937C84.2203 417.937 84.4103 417.937 84.5303 417.937L87.5603 417.997H105.97C109 417.997 111.47 415.517 111.47 412.487C111.47 409.457 109 406.977 105.97 406.977H103.93C106.28 403.017 107.45 398.307 107.45 392.977V355.747C107.45 335.737 107.82 322.427 108.44 316.107C108.87 311.647 110.91 310.847 113.94 310.967L125.37 311.467L115.8 305.207C106.16 298.947 96.0303 295.727 85.7203 295.727H85.8203V295.737ZM81.6803 353.467C81.6203 359.597 81.5603 365.417 81.4903 370.807C77.1703 372.357 62.7703 373.467 53.2603 373.777C50.4803 373.777 48.4403 373.777 47.3303 373.657L37.7603 372.297H37.3303C33.8103 372.297 32.5703 370.997 32.5703 367.467C32.5703 366.787 32.6303 365.177 33.0603 361.397C34.2303 349.377 39.1703 338.107 47.6403 327.827C57.2103 316.307 67.6503 310.727 79.6303 310.727C79.9403 310.727 80.0603 310.727 82.3503 310.297C82.3503 318.407 82.0403 332.907 81.6703 353.407V353.467H81.6803Z" fill="#283582"/>
<path d="M571.742 369.572C569.762 368.462 568.282 367.222 567.292 365.792C558.642 319.342 534.122 295.742 494.472 295.742C484.162 295.742 474.022 298.902 464.392 305.222L454.762 311.482L466.192 310.982C469.282 310.862 471.252 311.662 471.752 316.122C472.432 322.442 472.742 335.752 472.742 355.762V392.992C472.742 398.322 473.912 403.022 476.262 406.992H474.222C471.192 406.992 468.722 409.472 468.722 412.502C468.722 415.542 471.192 418.012 474.222 418.012H495.662C495.662 418.012 495.852 417.952 495.972 417.892C495.972 417.892 497.332 417.892 500.852 417.642L507.032 417.212L503.012 412.442C500.292 409.222 498.932 405.012 498.932 399.622C498.932 394.232 498.932 387.482 498.872 380.172C509.122 385.252 522.222 387.792 537.972 387.792H544.462C544.212 393.672 541.992 399.432 537.732 404.952C533.042 411.082 527.352 415.112 520.992 416.842L517.282 417.832L519.012 421.242C521.542 426.262 526.922 428.802 535.072 428.802C535.692 428.802 536.312 428.802 536.862 428.802C537.232 428.862 537.602 428.922 537.972 428.922H566.262C569.292 428.922 571.762 426.442 571.762 423.412C571.762 420.372 569.292 417.902 566.262 417.902H558.172C559.592 416.232 560.832 414.312 562.062 412.262C567.062 403.592 569.412 393.742 568.982 382.962C570.962 381.852 573.492 380.302 576.642 378.382L579.482 376.652L577.502 373.922C576.882 373.052 575.712 371.812 571.692 369.582H571.742V369.572ZM542.592 372.302L533.022 373.722C531.852 373.842 529.872 373.842 527.092 373.842C517.582 373.532 503.192 372.352 498.862 370.872C498.862 365.482 498.742 359.662 498.682 353.532C498.312 333.032 498.062 318.602 498.002 310.422C500.282 310.852 500.412 310.852 500.722 310.852C512.702 310.852 523.202 316.422 532.722 327.952C541.242 338.172 546.122 349.512 547.362 361.522C547.792 365.242 547.852 366.852 547.852 367.592C547.852 371.122 546.612 372.362 543.032 372.362V372.302H542.592Z" fill="#283582"/>
</g>
<defs>
<clipPath id="clip0_673_2">
<rect width="602" height="429" fill="white"/>
</clipPath>
</defs>
</svg>
